# xmcd
#
# Track frame offsets: 
#        150
#        15326
#        28629
#        41118
#        51541
#        54141
#        66745
#        77183
#        90675
#        106318
#        119885
#        129402
#
# Disc length: 1970 seconds
#
# Revision: 2
# Processed by: cddbd v1.5.2PL0 Copyright (c) Steve Scherf et al.
# Submitted via: ExactAudioCopyFreeDBPlugin 1.0
#
DISCID=a807b00c
DTITLE=Justin Townes Earle - Midnight at the Movies
DYEAR=2009
DGENRE=Country
TTITLE0=Midnight at the Movies
TTITLE1=What I Mean to You
TTITLE2=They Killed John Henry
TTITLE3=Mama's Eyes
TTITLE4=Dirty Rag
TTITLE5=Can't Hardly Wait
TTITLE6=Black Eyed Suzy
TTITLE7=Poor Fool
TTITLE8=Halfway to Jackson
TTITLE9=Someday I'll Be Forgiven For This
TTITLE10=Walk Out
TTITLE11=Here We Go Again
EXTD=YEAR: 2009
EXTT0=
EXTT1=
EXTT2=
EXTT3=
EXTT4=
EXTT5=
EXTT6=
EXTT7=
EXTT8=
EXTT9=
EXTT10=
EXTT11=
PLAYORDER=
